<svg width="18" height="22" viewBox="0 0 18 22" fill="none" xmlns="http://www.w3.org/2000/svg">
<path d="M13.1747 4.59937C12.0264 3.27299 10.7344 2.07817 9.3225 1.03687C9.22797 0.970722 9.11538 0.935242 9 0.935242C8.88462 0.935242 8.77203 0.970722 8.6775 1.03687C7.26557 2.07817 5.97359 3.27299 4.82531 4.59937C2.28188 7.52437 0.9375 10.6022 0.9375 13.5C0.9375 15.6383 1.78694 17.689 3.29895 19.201C4.81096 20.7131 6.86169 21.5625 9 21.5625C11.1383 21.5625 13.189 20.7131 14.701 19.201C16.2131 17.689 17.0625 15.6383 17.0625 13.5C17.0625 10.6022 15.7181 7.52437 13.1747 4.59937ZM9 20.4375C7.16075 20.4353 5.39746 19.7036 4.09691 18.4031C2.79636 17.1025 2.06473 15.3393 2.0625 13.5C2.0625 7.91062 7.59375 3.28781 9 2.20219C10.4062 3.28781 15.9375 7.91062 15.9375 13.5C15.9353 15.3393 15.2036 17.1025 13.9031 18.4031C12.6025 19.7036 10.8393 20.4353 9 20.4375ZM14.055 14.3437C13.8674 15.3919 13.3632 16.3574 12.6103 17.1103C11.8574 17.8632 10.8919 18.3674 9.84375 18.555C9.81272 18.5597 9.78139 18.5622 9.75 18.5625C9.60857 18.5631 9.47213 18.5103 9.36783 18.4148C9.26354 18.3193 9.19906 18.188 9.18724 18.047C9.17542 17.9061 9.21712 17.7659 9.30404 17.6543C9.39095 17.5427 9.51671 17.468 9.65625 17.445C11.2856 17.1712 12.6684 15.7875 12.945 14.1562C12.9699 14.0091 13.0522 13.8778 13.1738 13.7913C13.2341 13.7484 13.3022 13.7179 13.3742 13.7014C13.4463 13.6849 13.5209 13.6827 13.5938 13.695C13.6666 13.7073 13.7364 13.7339 13.799 13.7731C13.8616 13.8124 13.9159 13.8636 13.9587 13.9238C14.0016 13.9841 14.0321 14.0522 14.0486 14.1242C14.0651 14.1963 14.0673 14.2709 14.055 14.3437Z" fill="#3B3B54"/>
</svg>
