<svg width="20" height="23" viewBox="0 0 20 23" fill="none" xmlns="http://www.w3.org/2000/svg">
<path d="M12.7188 17.3122L9.71875 21.8122C9.63595 21.9365 9.50716 22.0228 9.36071 22.0522C9.21425 22.0816 9.06213 22.0515 8.93781 21.9688C8.81349 21.886 8.72715 21.7572 8.69779 21.6107C8.66843 21.4643 8.69845 21.3121 8.78125 21.1878L11.7812 16.6878C11.864 16.5635 11.9928 16.4772 12.1393 16.4478C12.2857 16.4184 12.4379 16.4485 12.5622 16.5312C12.6865 16.614 12.7728 16.7428 12.8022 16.8893C12.8316 17.0357 12.8015 17.1879 12.7188 17.3122ZM19.5625 7.625C19.5603 9.46425 18.8286 11.2275 17.5281 12.5281C16.2275 13.8286 14.4643 14.5603 12.625 14.5625H10.3009L7.46875 18.8122C7.42775 18.8737 7.37503 18.9266 7.3136 18.9678C7.25217 19.009 7.18322 19.0377 7.11071 19.0522C7.03819 19.0667 6.96352 19.0669 6.89096 19.0525C6.8184 19.0382 6.74937 19.0097 6.68781 18.9688C6.62625 18.9278 6.57338 18.875 6.53219 18.8136C6.49101 18.7522 6.46233 18.6832 6.44779 18.6107C6.43326 18.5382 6.43314 18.4635 6.44746 18.391C6.46178 18.3184 6.49025 18.2494 6.53125 18.1878L8.94906 14.5625H5.125C4.47092 14.5592 3.82477 14.419 3.2281 14.151C2.63144 13.883 2.09747 13.4931 1.66053 13.0064C1.22359 12.5196 0.893357 11.9468 0.691062 11.3248C0.488768 10.7028 0.418892 10.0453 0.485928 9.39465C0.552964 8.744 0.755429 8.11459 1.0803 7.54688C1.40517 6.97917 1.84526 6.48574 2.37227 6.09831C2.89927 5.71088 3.50153 5.43804 4.1403 5.29732C4.77908 5.1566 5.44023 5.15113 6.08125 5.28125C6.63389 3.74246 7.71172 2.44798 9.12496 1.62576C10.5382 0.803526 12.1962 0.506267 13.8071 0.786319C15.4179 1.06637 16.8783 1.90578 17.9311 3.15673C18.9839 4.40769 19.5616 5.98998 19.5625 7.625ZM18.4375 7.625C18.4326 6.11487 17.8407 4.66581 16.7869 3.5841C15.7332 2.50239 14.3001 1.87278 12.7906 1.82835C11.2811 1.78391 9.81348 2.32814 8.69791 3.346C7.58234 4.36385 6.90624 5.77558 6.8125 7.28281C6.8038 7.432 6.73619 7.57161 6.62455 7.67095C6.5129 7.77028 6.36637 7.8212 6.21719 7.8125C6.068 7.8038 5.92839 7.73619 5.82905 7.62455C5.72971 7.5129 5.6788 7.36637 5.6875 7.21719C5.70409 6.93419 5.73758 6.65244 5.78781 6.37344C5.30096 6.28222 4.80043 6.29353 4.31819 6.40664C3.83596 6.51976 3.38261 6.73219 2.9871 7.03038C2.59158 7.32857 2.2626 7.70596 2.02115 8.13846C1.7797 8.57095 1.6311 9.04904 1.58483 9.5422C1.53855 10.0354 1.59563 10.5328 1.75241 11.0026C1.90919 11.4725 2.16223 11.9045 2.49537 12.271C2.82851 12.6376 3.23443 12.9306 3.68721 13.1315C4.13999 13.3323 4.62967 13.4366 5.125 13.4375H12.625C14.166 13.4358 15.6435 12.8228 16.7331 11.7331C17.8228 10.6435 18.4358 9.16604 18.4375 7.625Z" fill="#3B3B54"/>
</svg>
