<svg width="79" height="15" viewBox="0 0 79 15" fill="none" xmlns="http://www.w3.org/2000/svg">
<path d="M4.0416 14.6241L0 0.800049H2.4288L5.184 10.784L7.9296 0.819247L10.3584 0.800049L13.1136 10.784L15.8592 0.800049H18.288L14.256 14.6241H11.9712L9.1392 4.79365L6.3264 14.6241H4.0416Z" fill="#FAFAFA"/>
<path d="M23.4243 14.912C22.3747 14.912 21.4531 14.6849 20.6595 14.2305C19.8659 13.7761 19.2451 13.1457 18.7971 12.3393C18.3555 11.5329 18.1347 10.6049 18.1347 9.55525C18.1347 8.42245 18.3523 7.44005 18.7875 6.60805C19.2227 5.76965 19.8275 5.12005 20.6019 4.65925C21.3763 4.19845 22.2723 3.96805 23.2899 3.96805C24.3651 3.96805 25.2771 4.22085 26.0259 4.72645C26.7811 5.22565 27.3411 5.93285 27.7059 6.84805C28.0707 7.76325 28.2083 8.84165 28.1187 10.0832H25.8243V9.23845C25.8179 8.11205 25.6195 7.28965 25.2291 6.77125C24.8387 6.25285 24.2243 5.99365 23.3859 5.99365C22.4387 5.99365 21.7347 6.28805 21.2739 6.87685C20.8131 7.45925 20.5827 8.31365 20.5827 9.44005C20.5827 10.4896 20.8131 11.3024 21.2739 11.8784C21.7347 12.4544 22.4067 12.7424 23.2899 12.7424C23.8595 12.7424 24.3491 12.6176 24.7587 12.368C25.1747 12.112 25.4947 11.7441 25.7187 11.2641L28.0035 11.9552C27.6067 12.8896 26.9923 13.616 26.1603 14.1344C25.3347 14.6528 24.4227 14.912 23.4243 14.912ZM19.8531 10.0832V8.33605H26.9859V10.0832H19.8531Z" fill="#FAFAFA"/>
<path d="M32.9724 14.912C32.2236 14.912 31.59 14.7713 31.0716 14.4897C30.5532 14.2017 30.1596 13.8209 29.8908 13.3473C29.6284 12.8737 29.4972 12.352 29.4972 11.7824C29.4972 11.2832 29.5804 10.8352 29.7468 10.4384C29.9132 10.0352 30.1692 9.68965 30.5148 9.40165C30.8604 9.10725 31.3084 8.86725 31.8588 8.68165C32.2748 8.54725 32.7612 8.42565 33.318 8.31685C33.8812 8.20805 34.4892 8.10885 35.142 8.01925C35.8012 7.92325 36.4892 7.82085 37.206 7.71205L36.3804 8.18245C36.3868 7.46565 36.2268 6.93765 35.9004 6.59845C35.574 6.25925 35.0236 6.08965 34.2492 6.08965C33.782 6.08965 33.3308 6.19845 32.8956 6.41605C32.4604 6.63365 32.1564 7.00805 31.9836 7.53925L29.8716 6.87685C30.1276 6.00005 30.614 5.29605 31.3308 4.76485C32.054 4.23365 33.0268 3.96805 34.2492 3.96805C35.1708 3.96805 35.9804 4.11845 36.678 4.41925C37.382 4.72005 37.9036 5.21285 38.2428 5.89765C38.4284 6.26245 38.5404 6.63685 38.5788 7.02085C38.6172 7.39845 38.6364 7.81125 38.6364 8.25925V14.6241H36.6108V12.3777L36.9468 12.7424C36.4796 13.4912 35.9324 14.0417 35.3052 14.3937C34.6844 14.7393 33.9068 14.912 32.9724 14.912ZM33.4332 13.0689C33.958 13.0689 34.406 12.9761 34.7772 12.7905C35.1484 12.6048 35.4428 12.3776 35.6604 12.1088C35.8844 11.84 36.0348 11.5872 36.1116 11.3504C36.2332 11.056 36.3004 10.72 36.3132 10.3424C36.3324 9.95845 36.342 9.64805 36.342 9.41125L37.0524 9.62245C36.3548 9.73125 35.7564 9.82725 35.2572 9.91045C34.758 9.99365 34.3292 10.0736 33.9708 10.1504C33.6124 10.2208 33.2956 10.3008 33.0204 10.3904C32.7516 10.4865 32.5244 10.5984 32.3388 10.7264C32.1532 10.8544 32.0092 11.0016 31.9068 11.168C31.8108 11.3344 31.7628 11.5296 31.7628 11.7536C31.7628 12.0096 31.8268 12.2369 31.9548 12.4353C32.0828 12.6273 32.2684 12.7808 32.5116 12.896C32.7612 13.0112 33.0684 13.0689 33.4332 13.0689Z" fill="#FAFAFA"/>
<path d="M47.2125 14.6241C46.5277 14.7521 45.8557 14.8064 45.1965 14.7872C44.5437 14.7744 43.9581 14.656 43.4397 14.432C42.9213 14.2016 42.5277 13.8401 42.2589 13.3473C42.0221 12.8993 41.8973 12.4416 41.8845 11.9744C41.8717 11.5072 41.8653 10.9792 41.8653 10.3904V1.37605H44.1693V10.2561C44.1693 10.6721 44.1725 11.0368 44.1789 11.3504C44.1917 11.664 44.2589 11.9201 44.3805 12.1185C44.6109 12.5025 44.9789 12.7168 45.4845 12.7617C45.9901 12.8064 46.5661 12.7809 47.2125 12.6849V14.6241ZM39.9837 6.07045V4.25605H47.2125V6.07045H39.9837Z" fill="#FAFAFA"/>
<path d="M56.6131 14.6241V9.63205C56.6131 9.30565 56.5907 8.94405 56.5459 8.54725C56.5011 8.15045 56.3955 7.76965 56.2291 7.40485C56.0691 7.03365 55.8259 6.72965 55.4995 6.49285C55.1795 6.25605 54.7443 6.13765 54.1939 6.13765C53.8995 6.13765 53.6083 6.18565 53.3203 6.28165C53.0323 6.37765 52.7699 6.54405 52.5331 6.78085C52.3027 7.01125 52.1171 7.33125 51.9763 7.74085C51.8355 8.14405 51.7651 8.66245 51.7651 9.29605L50.3923 8.71045C50.3923 7.82725 50.5619 7.02725 50.9011 6.31045C51.2467 5.59365 51.7523 5.02405 52.4179 4.60165C53.0835 4.17285 53.9027 3.95845 54.8755 3.95845C55.6435 3.95845 56.2771 4.08645 56.7763 4.34245C57.2755 4.59845 57.6723 4.92485 57.9667 5.32165C58.2611 5.71845 58.4787 6.14085 58.6195 6.58885C58.7603 7.03685 58.8499 7.46245 58.8883 7.86565C58.9331 8.26245 58.9555 8.58565 58.9555 8.83525V14.6241H56.6131ZM49.4227 14.6241V0.800049H51.4867V8.07685H51.7651V14.6241H49.4227Z" fill="#FAFAFA"/>
<path d="M66.1743 14.912C65.1247 14.912 64.2031 14.6849 63.4095 14.2305C62.6159 13.7761 61.9951 13.1457 61.5471 12.3393C61.1055 11.5329 60.8847 10.6049 60.8847 9.55525C60.8847 8.42245 61.1023 7.44005 61.5375 6.60805C61.9727 5.76965 62.5775 5.12005 63.3519 4.65925C64.1263 4.19845 65.0223 3.96805 66.0399 3.96805C67.1151 3.96805 68.0271 4.22085 68.7759 4.72645C69.5311 5.22565 70.0911 5.93285 70.4559 6.84805C70.8207 7.76325 70.9583 8.84165 70.8687 10.0832H68.5743V9.23845C68.5679 8.11205 68.3695 7.28965 67.9791 6.77125C67.5887 6.25285 66.9743 5.99365 66.1359 5.99365C65.1887 5.99365 64.4847 6.28805 64.0239 6.87685C63.5631 7.45925 63.3327 8.31365 63.3327 9.44005C63.3327 10.4896 63.5631 11.3024 64.0239 11.8784C64.4847 12.4544 65.1567 12.7424 66.0399 12.7424C66.6095 12.7424 67.0991 12.6176 67.5087 12.368C67.9247 12.112 68.2447 11.7441 68.4687 11.2641L70.7535 11.9552C70.3567 12.8896 69.7423 13.616 68.9103 14.1344C68.0847 14.6528 67.1727 14.912 66.1743 14.912ZM62.6031 10.0832V8.33605H69.7359V10.0832H62.6031Z" fill="#FAFAFA"/>
<path d="M73.0107 14.6241V4.25605H75.0555V6.78085L74.8059 6.45445C74.9339 6.10885 75.1035 5.79525 75.3147 5.51365C75.5323 5.22565 75.7915 4.98885 76.0923 4.80325C76.3483 4.63045 76.6299 4.49605 76.9371 4.40005C77.2507 4.29765 77.5707 4.23685 77.8971 4.21765C78.2235 4.19205 78.5403 4.20485 78.8475 4.25605V6.41605C78.5403 6.32645 78.1851 6.29765 77.7819 6.32965C77.3851 6.36165 77.0267 6.47365 76.7067 6.66565C76.3867 6.83845 76.1243 7.05925 75.9195 7.32805C75.7211 7.59685 75.5739 7.90405 75.4779 8.24965C75.3819 8.58885 75.3339 8.95685 75.3339 9.35365V14.6241H73.0107Z" fill="#FAFAFA"/>
</svg>
